<?xml version="1.0" ?><svg height="128" viewBox="0 0 128 128" width="128" xmlns="http://www.w3.org/2000/svg"><defs><style>
      .cls-1 {
        fill: #e9faff;
      }

      .cls-2 {
        fill: #ff859e;
      }

      .cls-3 {
        fill: #f97594;
      }

      .cls-4 {
        fill: none;
        stroke: #556193;
        stroke-miterlimit: 10;
        stroke-width: 2px;
      }
    </style></defs><title/><g id="circle"><circle class="cls-1" cx="63.5" cy="64.5" r="57.5"/></g><g id="icon"><g><g><circle class="cls-2" cx="63.5" cy="63.5" r="31.5"/><path class="cls-3" d="M64.5,32a31.33,31.33,0,0,0-17,5,28.75,28.75,0,1,1-5.21,48.85A31.5,31.5,0,1,0,64.5,32Z"/><path class="cls-2" d="M59.72,87c1.56,1.55,2.33,6.33,2.59,8.51a11.63,11.63,0,0,1-1.26,7.42c-.75,1.2-2,2.37-1.69,3.76a2.57,2.57,0,0,0,1.86,1.75,22.14,22.14,0,0,0,5.75,0,2.54,2.54,0,0,0,1.85-1.75c.31-1.39-.93-2.56-1.68-3.76a11.4,11.4,0,0,1-1.42-7.34c.26-2.18,1.18-7,2.75-8.59"/><path class="cls-2" d="M59.72,87c1.56,1.55,2.33,6.33,2.59,8.51a11.63,11.63,0,0,1-1.26,7.42c-.75,1.2-2,2.37-1.69,3.76a2.57,2.57,0,0,0,1.86,1.75,22.14,22.14,0,0,0,5.75,0,2.54,2.54,0,0,0,1.85-1.75c.31-1.39-.93-2.56-1.68-3.76a11.4,11.4,0,0,1-1.42-7.34c.26-2.18,1.18-7,2.75-8.59Z"/><path class="cls-2" d="M78.12,91.43l.51.66a11.6,11.6,0,0,1,2.62,7c0,1.42-.54,3.06.42,4.1a2.54,2.54,0,0,0,2.48.6,22.27,22.27,0,0,0,5-2.88,2.55,2.55,0,0,0,.73-2.45c-.43-1.35-2.09-1.74-3.34-2.41a11.35,11.35,0,0,1-4.89-5.64c-.09-.2-.19-.43-.28-.68Z"/><path class="cls-2" d="M88.76,81.58a32.74,32.74,0,0,1,5.62,1.89,11.55,11.55,0,0,1,5.79,4.79c.67,1.25,1.06,2.92,2.42,3.34a2.56,2.56,0,0,0,2.45-.73,22.56,22.56,0,0,0,2.87-5,2.57,2.57,0,0,0-.59-2.49c-1-1-2.69-.47-4.1-.42a11.39,11.39,0,0,1-7.06-2.44,28.77,28.77,0,0,1-4.77-4.45Z"/><path class="cls-2" d="M34.8,77.28a32.81,32.81,0,0,1-4.44,3.92,11.6,11.6,0,0,1-7,2.62c-1.42,0-3-.54-4.1.42a2.55,2.55,0,0,0-.59,2.49,21.79,21.79,0,0,0,2.87,5,2.56,2.56,0,0,0,2.45.73c1.35-.42,1.75-2.09,2.41-3.34A11.42,11.42,0,0,1,32,84.2a30.64,30.64,0,0,1,5.4-1.75Z"/><path class="cls-2" d="M46.27,90.73a11.27,11.27,0,0,1-4.6,5.37c-1.25.67-2.92,1.06-3.34,2.41a2.55,2.55,0,0,0,.73,2.45,22.21,22.21,0,0,0,5,2.88,2.55,2.55,0,0,0,2.49-.6c1-1,.47-2.68.42-4.1a11.34,11.34,0,0,1,2.33-6.91Z"/><path class="cls-2" d="M66.8,40.87c-1.56-1.55-2.33-6.33-2.58-8.51a11.56,11.56,0,0,1,1.25-7.42c.76-1.2,2-2.37,1.69-3.76a2.54,2.54,0,0,0-1.86-1.75,22.06,22.06,0,0,0-5.74,0,2.54,2.54,0,0,0-1.86,1.75c-.3,1.39.94,2.56,1.69,3.76a11.46,11.46,0,0,1,1.42,7.34c-.26,2.18-1.19,7-2.75,8.59"/><path class="cls-2" d="M66.8,41c-1.56-1.55-2.33-6.33-2.58-8.51a11.56,11.56,0,0,1,1.25-7.42c.76-1.2,2-2.37,1.69-3.76a2.56,2.56,0,0,0-1.86-1.75,22.06,22.06,0,0,0-5.74,0,2.56,2.56,0,0,0-1.86,1.75c-.3,1.39.94,2.56,1.69,3.76a11.46,11.46,0,0,1,1.42,7.34c-.26,2.18-1.19,7-2.75,8.59Z"/><path class="cls-2" d="M48.4,36.44c-.19-.25-.36-.47-.5-.67a11.49,11.49,0,0,1-2.62-7.05c0-1.41.53-3-.42-4.1A2.58,2.58,0,0,0,42.37,24a22.56,22.56,0,0,0-5,2.87,2.57,2.57,0,0,0-.74,2.45c.43,1.35,2.09,1.75,3.35,2.41a11.46,11.46,0,0,1,4.89,5.65c.09.2.18.43.28.68Z"/><path class="cls-2" d="M37.77,46.29a33.32,33.32,0,0,1-5.62-1.89,11.58,11.58,0,0,1-5.8-4.79c-.66-1.26-1.06-2.92-2.41-3.35a2.56,2.56,0,0,0-2.45.73,21.86,21.86,0,0,0-2.87,5,2.55,2.55,0,0,0,.59,2.49c1.05.95,2.68.47,4.1.41a11.45,11.45,0,0,1,7.06,2.45,29.92,29.92,0,0,1,4.77,4.44Z"/><path class="cls-2" d="M39,60.15c-1.55,1.56-6.33,2.33-8.51,2.59a11.63,11.63,0,0,1-7.42-1.26c-1.2-.75-2.37-2-3.76-1.69a2.56,2.56,0,0,0-1.75,1.86,22.14,22.14,0,0,0,0,5.75,2.54,2.54,0,0,0,1.75,1.85c1.39.31,2.56-.93,3.76-1.68a11.4,11.4,0,0,1,7.34-1.42c2.18.26,7,1.18,8.59,2.75Z"/><path class="cls-2" d="M86,68.9c1.55-1.57,6.33-2.33,8.51-2.59a11.56,11.56,0,0,1,7.42,1.26c1.2.75,2.37,2,3.76,1.68a2.54,2.54,0,0,0,1.75-1.85,22.14,22.14,0,0,0,0-5.75,2.56,2.56,0,0,0-1.75-1.86c-1.39-.3-2.56.94-3.76,1.69a11.46,11.46,0,0,1-7.34,1.42c-2.18-.26-7-1.19-8.59-2.75Z"/><path class="cls-2" d="M91.73,50.59a32.13,32.13,0,0,1,4.44-3.92,11.57,11.57,0,0,1,7-2.63c1.41.06,3,.54,4.1-.41a2.58,2.58,0,0,0,.59-2.49,22.62,22.62,0,0,0-2.87-5,2.56,2.56,0,0,0-2.45-.73c-1.36.43-1.75,2.09-2.42,3.35a11.4,11.4,0,0,1-5.64,4.89,32.54,32.54,0,0,1-5.41,1.75Z"/><path class="cls-2" d="M80.25,37.14a11.36,11.36,0,0,1,4.61-5.38c1.25-.66,2.91-1.06,3.34-2.41a2.56,2.56,0,0,0-.73-2.45,22.62,22.62,0,0,0-5-2.87,2.55,2.55,0,0,0-2.48.59c-1,1.05-.47,2.69-.42,4.1a11.29,11.29,0,0,1-2.33,6.91Z"/><circle class="cls-3" cx="49.5" cy="52.5" r="4.5"/><circle class="cls-3" cx="77.5" cy="77.5" r="4.5"/><circle class="cls-3" cx="64.5" cy="65.5" r="4.5"/><circle class="cls-3" cx="74.5" cy="49.5" r="4.5"/><circle class="cls-3" cx="49.5" cy="76.5" r="4.5"/></g><g><path class="cls-4" d="M32,62.12a31.5,31.5,0,0,1,28.67-30"/><path class="cls-4" d="M62.52,95a31.51,31.51,0,0,1-30.41-28.8"/><path class="cls-4" d="M94.89,66.15A31.51,31.51,0,0,1,66,94.9"/><path class="cls-4" d="M64,32A31.5,31.5,0,0,1,95,62.78"/><path class="cls-4" d="M66.8,40.87c-1.56-1.55-2.33-6.33-2.58-8.51a11.56,11.56,0,0,1,1.25-7.42c.76-1.2,2-2.37,1.69-3.76a2.54,2.54,0,0,0-1.86-1.75,22.06,22.06,0,0,0-5.74,0,2.54,2.54,0,0,0-1.86,1.75c-.3,1.39.94,2.56,1.69,3.76a11.46,11.46,0,0,1,1.42,7.34c-.26,2.18-1.19,7-2.75,8.59"/><path class="cls-4" d="M66.8,40.87c-1.56-1.55-2.33-6.33-2.58-8.51a11.56,11.56,0,0,1,1.25-7.42c.76-1.2,2-2.37,1.69-3.76a2.54,2.54,0,0,0-1.86-1.75,22.06,22.06,0,0,0-5.74,0,2.54,2.54,0,0,0-1.86,1.75c-.3,1.39.94,2.56,1.69,3.76a11.46,11.46,0,0,1,1.42,7.34c-.26,2.18-1.19,7-2.75,8.59"/><path class="cls-4" d="M48.4,36.44c-.19-.25-.36-.47-.5-.67a11.49,11.49,0,0,1-2.62-7.05c0-1.41.53-3-.42-4.1A2.58,2.58,0,0,0,42.37,24a22.56,22.56,0,0,0-5,2.87,2.57,2.57,0,0,0-.74,2.45c.43,1.35,2.09,1.75,3.35,2.41a11.46,11.46,0,0,1,4.89,5.65c.09.2.18.43.28.68"/><path class="cls-4" d="M37.77,46.29a33.32,33.32,0,0,1-5.62-1.89,11.58,11.58,0,0,1-5.8-4.79c-.66-1.26-1.06-2.92-2.41-3.35a2.56,2.56,0,0,0-2.45.73,21.86,21.86,0,0,0-2.87,5,2.55,2.55,0,0,0,.59,2.49c1.05.95,2.68.47,4.1.41a11.45,11.45,0,0,1,7.06,2.45,31,31,0,0,1,4.38,4"/><path class="cls-4" d="M38.78,60.15c-1.55,1.56-6.33,2.33-8.51,2.59a11.63,11.63,0,0,1-7.42-1.26c-1.2-.75-2.38-2-3.76-1.69a2.57,2.57,0,0,0-1.76,1.86,23.05,23.05,0,0,0,0,5.75,2.56,2.56,0,0,0,1.76,1.85c1.38.31,2.56-.93,3.76-1.68a11.38,11.38,0,0,1,7.33-1.42c2.19.26,7,1.18,8.6,2.75"/><path class="cls-4" d="M86.09,68.9c1.54-1.57,6.32-2.33,8.51-2.59A11.53,11.53,0,0,1,102,67.57c1.21.75,2.38,2,3.76,1.68a2.54,2.54,0,0,0,1.76-1.85,22.14,22.14,0,0,0,0-5.75,2.55,2.55,0,0,0-1.76-1.86c-1.38-.3-2.55.94-3.76,1.69a11.44,11.44,0,0,1-7.33,1.42c-2.18-.26-7.05-1.19-8.59-2.75"/><path class="cls-4" d="M91.73,50.59a32.13,32.13,0,0,1,4.44-3.92,11.57,11.57,0,0,1,7-2.63c1.41.06,3,.54,4.1-.41a2.58,2.58,0,0,0,.59-2.49,22.62,22.62,0,0,0-2.87-5,2.56,2.56,0,0,0-2.45-.73c-1.36.43-1.75,2.09-2.42,3.35a11.4,11.4,0,0,1-5.64,4.89,32.54,32.54,0,0,1-5.41,1.75"/><path class="cls-4" d="M80.25,37.14a11.36,11.36,0,0,1,4.61-5.38c1.25-.66,2.91-1.06,3.34-2.41a2.56,2.56,0,0,0-.73-2.45,22.62,22.62,0,0,0-5-2.87,2.55,2.55,0,0,0-2.48.59c-1,1.05-.47,2.69-.42,4.1a11.29,11.29,0,0,1-2.33,6.91"/><path class="cls-4" d="M59.72,86.62c1.56,1.54,2.33,6.32,2.59,8.51a11.6,11.6,0,0,1-1.26,7.41c-.75,1.21-2,2.38-1.69,3.76a2.57,2.57,0,0,0,1.86,1.76,22.14,22.14,0,0,0,5.75,0,2.54,2.54,0,0,0,1.85-1.76c.31-1.38-.93-2.55-1.68-3.76a11.37,11.37,0,0,1-1.42-7.33c.26-2.18,1.18-7,2.75-8.59"/><path class="cls-4" d="M59.72,86.62c1.56,1.54,2.33,6.32,2.59,8.51a11.6,11.6,0,0,1-1.26,7.41c-.75,1.21-2,2.38-1.69,3.76a2.57,2.57,0,0,0,1.86,1.76,22.14,22.14,0,0,0,5.75,0,2.54,2.54,0,0,0,1.85-1.76c.31-1.38-.93-2.55-1.68-3.76a11.37,11.37,0,0,1-1.42-7.33c.26-2.18,1.18-7,2.75-8.59"/><path class="cls-4" d="M78.63,91.71a11.6,11.6,0,0,1,2.62,7.05c0,1.42-.54,3.06.42,4.1a2.54,2.54,0,0,0,2.48.59,21.86,21.86,0,0,0,5-2.87,2.56,2.56,0,0,0,.73-2.45c-.43-1.35-2.09-1.75-3.34-2.41a11.39,11.39,0,0,1-4.89-5.64c-.09-.21-.19-.43-.28-.68"/><path class="cls-4" d="M90.15,81.55a37.82,37.82,0,0,1,4.23,1.53,11.57,11.57,0,0,1,5.79,4.8c.67,1.25,1.06,2.91,2.42,3.34a2.56,2.56,0,0,0,2.45-.73,22.62,22.62,0,0,0,2.87-5,2.56,2.56,0,0,0-.59-2.48c-1-1-2.69-.47-4.1-.42a11.39,11.39,0,0,1-7.06-2.44,33.19,33.19,0,0,1-3.7-3.25"/><path class="cls-4" d="M34.8,76.9a32.81,32.81,0,0,1-4.44,3.92,11.6,11.6,0,0,1-7,2.62c-1.42,0-3-.54-4.1.42a2.55,2.55,0,0,0-.59,2.49,22,22,0,0,0,2.87,5,2.56,2.56,0,0,0,2.45.73c1.35-.43,1.75-2.09,2.41-3.34A11.42,11.42,0,0,1,32,83.82a30.64,30.64,0,0,1,5.4-1.75"/><path class="cls-4" d="M46.27,90.35a11.27,11.27,0,0,1-4.6,5.37c-1.25.66-2.92,1.06-3.34,2.41a2.56,2.56,0,0,0,.73,2.45,21.79,21.79,0,0,0,5,2.87,2.55,2.55,0,0,0,2.49-.59c1-1,.47-2.68.42-4.1a11.34,11.34,0,0,1,2.33-6.91"/><circle class="cls-4" cx="49.5" cy="52.5" r="4.5"/><circle class="cls-4" cx="77.5" cy="77.5" r="4.5"/><circle class="cls-4" cx="64.5" cy="65.5" r="4.5"/><circle class="cls-4" cx="74.5" cy="49.5" r="4.5"/><circle class="cls-4" cx="49.5" cy="76.5" r="4.5"/></g></g></g></svg>